<svg width="35" height="35" fill="none" xmlns="http://www.w3.org/2000/svg"><path fill-rule="evenodd" clip-rule="evenodd" d="M0 17.5C0 7.835 7.835 0 17.5 0S35 7.835 35 17.5 27.165 35 17.5 35 0 27.165 0 17.5Z" fill="url('#paint0_linear_8_414')"/><rect width="35" height="35" rx="5" fill="url('#paint1_linear_8_414')"/><path fill-rule="evenodd" clip-rule="evenodd" d="M12.708 17.5a4.793 4.793 0 1 1 9.587 0 4.793 4.793 0 0 1-9.587 0Zm7.904 0a3.111 3.111 0 1 0-6.222 0 3.111 3.111 0 0 0 6.222 0Z" fill="#fff"/><path d="M21.363 12.518a1.12 1.12 0 1 1 2.24 0 1.12 1.12 0 0 1-2.24 0Z" fill="#fff"/><path fill-rule="evenodd" clip-rule="evenodd" d="M13.652 8.223c.996-.045 1.314-.056 3.849-.056h-.003c2.536 0 2.852.01 3.848.056.994.046 1.672.203 2.267.434a4.561 4.561 0 0 1 1.653 1.076 4.58 4.58 0 0 1 1.077 1.653c.23.594.387 1.272.434 2.266.045.995.056 1.313.056 3.848s-.011 2.852-.056 3.848c-.047.993-.204 1.672-.434 2.265a4.58 4.58 0 0 1-1.077 1.653 4.567 4.567 0 0 1-1.652 1.078c-.594.23-1.273.388-2.267.433-.995.046-1.312.057-3.847.057s-2.853-.011-3.848-.057c-.994-.045-1.672-.203-2.266-.433a4.571 4.571 0 0 1-1.653-1.078 4.573 4.573 0 0 1-1.076-1.653c-.23-.593-.388-1.272-.434-2.265-.045-.996-.056-1.313-.056-3.848s.011-2.853.056-3.848c.045-.994.202-1.672.433-2.266a4.582 4.582 0 0 1 1.078-1.653 4.57 4.57 0 0 1 1.653-1.076c.594-.231 1.272-.388 2.265-.434ZM17.19 9.85h-.526v-.003c-1.74.002-2.074.014-2.935.053-.91.042-1.404.193-1.733.322-.435.17-.746.371-1.073.698a2.89 2.89 0 0 0-.698 1.073c-.128.33-.28.823-.322 1.733-.045.984-.054 1.278-.054 3.77 0 2.493.01 2.789.054 3.773.042.91.194 1.404.322 1.732.17.436.371.746.698 1.073a2.89 2.89 0 0 0 1.073.698c.33.128.823.28 1.733.322.984.044 1.28.054 3.772.054s2.787-.01 3.771-.054c.91-.042 1.405-.194 1.733-.322.436-.169.746-.371 1.073-.698.327-.326.53-.637.698-1.072.128-.329.28-.823.322-1.733.044-.983.054-1.28.054-3.77s-.01-2.786-.054-3.77c-.042-.91-.194-1.404-.322-1.733a2.895 2.895 0 0 0-.698-1.073 2.886 2.886 0 0 0-1.073-.698c-.329-.128-.823-.28-1.733-.322-.984-.044-1.279-.053-3.771-.053h-.311Z" fill="#fff"/><defs><linearGradient id="paint0_linear_8_414" x1="29.401" y1="35" x2="6.535" y2="0" gradientUnits="userSpaceOnUse"><stop stop-color="#E09B3D"/><stop offset=".3" stop-color="#C74C4D"/><stop offset=".6" stop-color="#C21975"/><stop offset="1" stop-color="#7024C4"/></linearGradient><linearGradient id="paint1_linear_8_414" x1="29.401" y1="35" x2="6.535" y2="0" gradientUnits="userSpaceOnUse"><stop stop-color="#E09B3D"/><stop offset=".3" stop-color="#C74C4D"/><stop offset=".6" stop-color="#C21975"/><stop offset="1" stop-color="#7024C4"/></linearGradient></defs></svg>