<svg width="35" height="35" fill="none" xmlns="http://www.w3.org/2000/svg"><path fill-rule="evenodd" clip-rule="evenodd" d="M17.5 35C27.165 35 35 27.165 35 17.5S27.165 0 17.5 0 0 7.835 0 17.5 7.835 35 17.5 35Z" fill="#675DA9"/><rect width="35" height="35" rx="5" fill="#675DA9"/><path d="m27.327 13.1-.006-.025c-.496-2.023-2.734-4.194-4.79-4.646l-.022-.005a26.396 26.396 0 0 0-10.018 0l-.024.005c-2.054.452-4.292 2.623-4.789 4.646l-.005.025a19.933 19.933 0 0 0 0 8.517l.005.025c.476 1.937 2.547 4.009 4.526 4.578v2.26c0 .817.987 1.218 1.55.628l2.269-2.379c.492.028.985.044 1.477.044 1.673 0 3.347-.16 5.009-.48l.023-.004c2.055-.452 4.293-2.623 4.789-4.647l.006-.025a19.935 19.935 0 0 0 0-8.517Zm-1.796 8.108c-.331 1.32-2.03 2.96-3.38 3.264a24.605 24.605 0 0 1-5.328.434.125.125 0 0 0-.095.039l-1.657 1.715-1.762 1.824a.206.206 0 0 1-.355-.144v-3.742a.129.129 0 0 0-.104-.126h-.001c-1.35-.303-3.049-1.944-3.38-3.265a18.09 18.09 0 0 1 0-7.697c.331-1.32 2.03-2.961 3.38-3.265a24.582 24.582 0 0 1 9.302 0c1.35.304 3.049 1.945 3.38 3.265a18.07 18.07 0 0 1 0 7.698Z" fill="#fff"/><path d="M20.437 22.935c-.208-.064-.406-.107-.59-.183-1.903-.797-3.654-1.824-5.042-3.399-.79-.896-1.407-1.907-1.929-2.976-.247-.508-.456-1.035-.669-1.559-.194-.478.092-.971.393-1.331a3.102 3.102 0 0 1 1.039-.787c.306-.149.61-.063.833.2.485.567.93 1.163 1.29 1.82.222.405.162.9-.24 1.174-.098.067-.187.146-.278.221a.916.916 0 0 0-.21.223.615.615 0 0 0-.04.536c.496 1.373 1.33 2.44 2.701 3.015.22.092.44.2.692.17.423-.05.56-.518.857-.762.29-.24.66-.242.972-.043.312.199.615.413.916.629.295.212.589.42.861.662.262.232.352.537.205.853-.27.578-.663 1.059-1.23 1.366-.16.087-.35.115-.531.17.18-.055-.208-.063 0 0Zm-2.932-10.896c2.49.07 4.535 1.736 4.973 4.219.075.422.101.855.134 1.284.014.18-.087.352-.28.354-.2.003-.29-.166-.303-.346-.025-.357-.043-.716-.092-1.07-.258-1.87-1.736-3.418-3.582-3.75-.278-.05-.563-.063-.844-.093-.178-.019-.41-.03-.45-.252-.033-.187.123-.336.3-.346.048-.002.096 0 .144 0 2.49.07-.048 0 0 0Z" fill="#fff"/><path d="M21.289 16.985c-.004.031-.007.105-.025.174-.066.253-.445.284-.532.03a.768.768 0 0 1-.03-.243c0-.532-.115-1.063-.381-1.526a2.825 2.825 0 0 0-1.181-1.117 3.377 3.377 0 0 0-.941-.291c-.142-.024-.285-.038-.428-.058-.173-.024-.265-.135-.257-.307a.269.269 0 0 1 .298-.267c.572.033 1.123.158 1.631.429 1.033.552 1.623 1.422 1.796 2.585.007.053.02.105.024.158.01.13.016.26.026.433-.004.031-.01-.172 0 0Z" fill="#fff"/><path d="M19.74 16.924c-.208.004-.32-.112-.341-.305-.015-.134-.027-.27-.059-.4a1.13 1.13 0 0 0-.412-.654 1.075 1.075 0 0 0-.337-.164c-.153-.044-.311-.032-.464-.07-.165-.04-.257-.176-.23-.332a.3.3 0 0 1 .315-.243c.965.07 1.655.573 1.753 1.72.007.08.015.166-.002.243-.03.132-.128.199-.223.205.095-.006-.208.004 0 0Z" fill="#fff"/></svg>